HIERARCHY
ROOT root
{
	OFFSET 0.000000 0.000000 0.000000
	CHANNELS 6 Xposition Yposition Zposition Zrotation Yrotation Xrotation
	JOINT lhip
	{
		OFFSET 0.058581 -0.082280 -0.017664
		CHANNELS 3 Zrotation Yrotation Xrotation
		JOINT lknee
		{
			OFFSET 0.043451 -0.386469 0.008037
			CHANNELS 3 Zrotation Yrotation Xrotation
			JOINT lankle
			{
				OFFSET -0.014790 -0.426874 -0.037428
				CHANNELS 3 Zrotation Yrotation Xrotation
				JOINT ltoe
				{
					OFFSET 0.041054 -0.060286 0.122042
					CHANNELS 3 Zrotation Yrotation Xrotation
					End Site
					{
						OFFSET 0.000000 0.000000 0.000000
					}
				}
			}
		}
	}
	JOINT rhip
	{
		OFFSET -0.060310 -0.090513 -0.013543
		CHANNELS 3 Zrotation Yrotation Xrotation
		JOINT rknee
		{
			OFFSET -0.043257 -0.383688 -0.004843
			CHANNELS 3 Zrotation Yrotation Xrotation
			JOINT rankle
			{
				OFFSET 0.019056 -0.420046 -0.034562
				CHANNELS 3 Zrotation Yrotation Xrotation
				JOINT rtoe
				{
					OFFSET -0.034840 -0.062106 0.130323
					CHANNELS 3 Zrotation Yrotation Xrotation
					End Site
					{
						OFFSET 0.000000 0.000000 0.000000
					}
				}
			}
		}
	}
	JOINT lowerback
	{
		OFFSET 0.004439 0.124404 -0.038385
		CHANNELS 3 Zrotation Yrotation Xrotation
		JOINT upperback
		{
			OFFSET 0.004488 0.137956 0.026820
			CHANNELS 3 Zrotation Yrotation Xrotation
			JOINT chest
			{
				OFFSET -0.002265 0.056032 0.002855
				CHANNELS 3 Zrotation Yrotation Xrotation
				JOINT lowerneck
				{
					OFFSET -0.013390 0.211636 -0.033468
					CHANNELS 3 Zrotation Yrotation Xrotation
					JOINT upperneck
					{
						OFFSET 0.010113 0.088937 0.050410
						CHANNELS 3 Zrotation Yrotation Xrotation
						End Site
						{
							OFFSET 0.000000 0.000000 0.000000
						}
					}
				}
				JOINT lclavicle
				{
					OFFSET 0.071702 0.114000 -0.018898
					CHANNELS 3 Zrotation Yrotation Xrotation
					JOINT lshoulder
					{
						OFFSET 0.122921 0.045205 -0.019046
						CHANNELS 3 Zrotation Yrotation Xrotation
						JOINT lelbow
						{
							OFFSET 0.255332 -0.015649 -0.022946
							CHANNELS 3 Zrotation Yrotation Xrotation
							JOINT lwrist
							{
								OFFSET 0.265709 0.012698 -0.007375
								CHANNELS 3 Zrotation Yrotation Xrotation
								End Site
								{
									OFFSET 0.000000 0.000000 0.000000
								}
							}
						}
					}
				}
				JOINT rclavicle
				{
					OFFSET -0.082954 0.112472 -0.023707
					CHANNELS 3 Zrotation Yrotation Xrotation
					JOINT rshoulder
					{
						OFFSET -0.113228 0.046853 -0.008472
						CHANNELS 3 Zrotation Yrotation Xrotation
						JOINT relbow
						{
							OFFSET -0.260127 -0.014369 -0.031269
							CHANNELS 3 Zrotation Yrotation Xrotation
							JOINT rwrist
							{
								OFFSET -0.269108 0.006794 -0.006027
								CHANNELS 3 Zrotation Yrotation Xrotation
								End Site
								{
									OFFSET 0.000000 0.000000 0.000000
								}
							}
						}
					}
				}
			}
		}
	}
}
MOTION
Frames: 8
Frame Time: 0.033333
0.945409 3.061447 0.990561 -44.204195 -0.206092 86.854702 1.752289 2.428705 5.018056 -4.546779 -2.163546 3.220634 1.584745 12.852345 -17.322897 0.000000 -0.000000 0.000000 2.350773 1.769481 -7.150963 0.418650 -3.058282 22.591533 1.866585 -10.998574 -16.743157 0.000000 -0.000000 0.000000 2.030247 -1.263473 6.266396 1.274878 -3.085908 6.214853 -0.771665 -3.877879 1.144631 5.623526 -0.600164 -4.122360 2.985292 -2.605268 8.284305 -26.053326 -0.946472 5.890640 -53.421317 -4.035422 10.434487 4.794314 -27.813978 6.110088 -1.079749 -9.097811 -6.267230 23.207798 1.852258 2.097408 50.173952 -2.220040 16.469051 -3.745021 43.198395 10.178713 9.195456 9.456689 -15.798331 
0.947451 3.061983 0.990771 -43.722117 -0.180214 86.771921 1.725335 2.471332 5.224206 -4.352546 -2.386850 2.532156 1.678801 12.403286 -17.106543 0.000000 -0.000000 0.000000 2.271332 1.430260 -6.918289 0.441920 -3.142622 22.163381 1.931275 -11.046120 -16.543365 0.000000 -0.000000 0.000000 2.199373 -1.287750 6.541388 1.126049 -2.959244 6.034924 -0.864437 -3.768509 1.422130 5.454665 -0.546642 -4.689213 2.702629 -2.966423 8.721252 -25.812784 -0.922766 5.687829 -53.206474 -4.401873 10.276183 4.496243 -28.576300 6.120457 -1.804716 -9.519056 -6.118497 23.078630 2.066880 2.143467 50.192736 -1.878653 16.548464 -3.673340 44.219782 10.128029 9.317894 9.605288 -15.573356 
0.949572 3.062608 0.990968 -43.266823 -0.174940 86.841082 1.720196 2.408495 5.099712 -4.341312 -2.627214 2.254630 1.651347 12.085187 -16.821098 0.000000 -0.000000 0.000000 2.137088 1.226211 -6.926724 0.452189 -3.382550 21.847975 1.989374 -11.009612 -16.333638 0.000000 -0.000000 0.000000 2.223925 -1.236206 6.638235 1.083972 -2.897482 6.116417 -0.867405 -3.687601 1.454894 5.208889 -0.627689 -4.886527 2.602673 -3.168389 8.565800 -25.700566 -1.022216 5.526858 -53.060686 -4.558990 10.470578 4.250221 -29.686963 6.114408 -1.259024 -9.640541 -6.453720 22.955288 2.202152 2.119691 49.997579 -1.659190 16.641359 -3.437932 45.298829 10.289929 8.992838 9.688696 -15.613142 
0.952038 3.063214 0.991195 -42.760200 -0.177017 86.790260 1.675868 2.301326 5.074591 -4.396302 -2.846073 2.049830 1.634445 11.897675 -16.585815 0.000000 -0.000000 0.000000 1.968858 0.969657 -6.856222 0.485498 -3.576344 21.601144 2.066361 -11.027075 -16.153351 0.000000 -0.000000 0.000000 2.270508 -1.165560 6.793499 0.971805 -2.839868 6.341084 -0.908774 -3.631630 1.509892 5.047871 -0.819899 -5.008173 2.598981 -3.367185 8.374074 -25.620197 -1.133088 5.495104 -52.784547 -4.610021 10.747919 3.970942 -31.743479 6.378728 -0.743692 -9.714981 -6.941681 22.809732 2.348285 2.104289 49.535848 -1.575446 16.776439 -2.915201 46.816158 10.791153 8.656254 9.759818 -15.578620 
0.953451 3.063567 0.991304 -42.520402 -0.168913 86.725678 1.625424 2.239752 5.092236 -4.384526 -3.009641 1.975807 1.644084 11.891509 -16.480862 0.000000 -0.000000 0.000000 1.908928 0.846185 -6.788726 0.485659 -3.618251 21.492432 2.086048 -11.114203 -16.058504 0.000000 -0.000000 0.000000 2.315660 -1.168373 6.894061 0.871179 -2.773093 6.514476 -0.946540 -3.606489 1.522410 4.988492 -0.956498 -5.026400 2.651369 -3.352706 8.260580 -25.756573 -1.086181 5.612580 -52.447986 -4.349786 10.908481 4.131107 -33.858741 6.746240 -0.954525 -9.655843 -7.283975 22.705052 2.416035 2.190715 49.067077 -1.690938 16.852099 -2.332425 48.093635 11.590122 8.798890 9.821799 -15.594292 
0.955160 3.063729 0.991385 -42.308421 -0.150066 86.648584 1.534687 2.198550 5.157384 -4.318125 -3.245439 1.828900 1.655680 11.968012 -16.367380 0.000000 -0.000000 0.000000 1.846519 0.684862 -6.707612 0.502330 -3.578263 21.359539 2.127965 -11.246986 -15.962535 0.000000 -0.000000 0.000000 2.359176 -1.210327 6.921665 0.790551 -2.664681 6.784860 -0.990458 -3.534574 1.584441 4.856927 -1.183351 -4.936213 2.636330 -3.320720 8.044771 -25.898834 -0.720242 5.660713 -51.718824 -4.028355 11.185688 3.531644 -37.111289 7.944764 -1.127308 -9.765104 -7.678273 22.557408 2.317688 2.296548 47.978060 -1.967846 17.074263 -0.843870 50.362934 13.381406 9.107694 10.005722 -15.427927 
0.956767 3.063880 0.991437 -42.177346 -0.099769 86.613452 1.513905 2.142742 5.182396 -4.312447 -3.419365 1.708334 1.642149 12.062617 -16.283911 0.000000 -0.000000 0.000000 1.814345 0.522452 -6.625681 0.560051 -3.446664 21.141040 2.194839 -11.400424 -15.839415 0.000000 -0.000000 0.000000 2.377874 -1.297534 6.825334 0.773424 -2.601021 7.103371 -0.991162 -3.481804 1.678905 4.640606 -1.392905 -4.767508 2.544067 -3.170338 7.782487 -26.033409 -0.226007 5.700373 -50.719425 -3.478022 11.593531 2.252062 -41.012877 9.674779 -0.762213 -10.041431 -7.984634 22.390837 2.102145 2.385333 46.492207 -2.306391 17.366845 1.408981 53.118636 15.840132 9.099157 10.217178 -15.205197 
0.958052 3.063842 0.991539 -42.220891 -0.066179 86.551590 1.500559 2.126562 5.280162 -4.348136 -3.534593 1.584651 1.619742 12.220327 -16.231341 0.000000 -0.000000 0.000000 1.768235 0.374488 -6.524057 0.640520 -3.199228 20.958489 2.309736 -11.498643 -15.720546 0.000000 -0.000000 0.000000 2.391386 -1.375444 6.666561 0.749117 -2.518106 7.465508 -1.029054 -3.435624 1.815117 4.446747 -1.526266 -4.590547 2.443734 -2.981080 7.531863 -26.098358 0.381077 5.699306 -49.445561 -2.670491 12.136945 0.414806 -45.460484 12.027003 -0.179272 -10.450013 -8.233297 22.240677 1.753774 2.386301 44.860757 -2.716668 17.681773 4.152930 56.130832 18.713718 8.974330 10.489242 -14.934200 
